<?xml version="1.0" encoding="utf-8"?>
<!-- Generator: Adobe Illustrator 24.2.0, SVG Export Plug-In . SVG Version: 6.00 Build 0)  -->
<svg version="1.1" id="图层_1" xmlns="http://www.w3.org/2000/svg" xmlns:xlink="http://www.w3.org/1999/xlink" x="0px" y="0px"
	 viewBox="0 0 218.48 153.78" style="enable-background:new 0 0 218.48 153.78;" xml:space="preserve">
<style type="text/css">
	.st0{fill:#040000;}
</style>
<path class="st0" d="M56.01,67.35h23.87v8.22h-1.11c0,0-0.41-2.15-1.74-3.65c-1.34-1.5-2.48-2.15-3.34-2.41
	c-0.86-0.26-7.09,0-7.09,0v11.51h4.34c0,0,1.5-0.65,2.01-1.88c0.51-1.22,0.39-2.05,0.39-2.05h1.35v9.78h-1.26
	c0,0-0.52-3.07-1.63-3.57c-1.11-0.51-5.17-0.41-5.17-0.41v9.31c0,0,0.38,2.15,1.7,2.74c1.32,0.59,2.87,0.47,2.87,0.47v0.93H55.91
	v-0.8c0,0,1.74-0.02,2.92-1.14C60,93.27,60,91.43,60,90.57s0.02-16.95,0.02-16.95s0-2.39-0.82-3.63c-0.82-1.24-3.21-1.61-3.21-1.61"
	/>
<path class="st0" d="M87.78,74.87c-6.9,0-10.93,4.96-10.93,11.08s3.59,11.08,10.93,11.08c6.97,0,10.93-4.96,10.93-11.08
	C98.71,79.44,95.14,74.87,87.78,74.87z M87.87,95.88c-2.43,0-4.4-4.44-4.4-9.91c0-5.47,1.27-9.91,4.4-9.91c2.43,0,4.4,4.44,4.4,9.91
	C92.27,91.44,91,95.88,87.87,95.88z"/>
<path class="st0" d="M98.71,76.94l9.27-1.88v4.26c0,0,2.2-3.3,4.28-3.94s4.48,0.39,4.48,0.39l-2.25,5.28c0,0-1.76-1.05-4.11-0.9
	c-2.35,0.15-2.47,1.96-2.47,2.91s0.09,8.65,0.09,8.65s-0.15,2.57,0.94,3.09c1.27,0.61,2.59,0.66,2.59,0.66v0.93h-12.6v-0.9
	c0,0,2.7-0.73,2.74-1.96c0.05-1.64,0.05-12.2,0.05-12.2s0.16-2.1-0.6-2.81c-0.76-0.71-2.41-0.97-2.41-0.97V76.94z"/>
<path class="st0" d="M137.76,82.22c-0.75-3.39-4.24-6.85-7.14-6.88c-2.9-0.03-6.03,1.34-6.03,1.34v-9.78l-9.49,1.71l0.05,0.61
	c0,0,0,0,0.78,0.09c0.78,0.09,1.82,0.62,2.15,1.38c0.33,0.76,0.16,3.6,0.16,3.6l-0.14,21.54c0,0,2.9,0.75,5.67,0.98
	c2.77,0.23,7.43,0.39,10.86-2.9C138.05,90.6,138.51,85.61,137.76,82.22z M127.98,95.43c-1.66,0.68-3.46,0-3.46,0V78.18
	c0,0,0.45-0.6,2.35-0.68c2.27-0.1,4.48,1.96,5.04,6.88C132.46,89.31,129.64,94.74,127.98,95.43z"/>
<path d="M158.37,92.3c0,0-3.87,1.75-6.59,1.19s-4.22-2.29-5.16-4.75c-0.81-2.13-0.32-3.69-0.32-3.69h12.79c0,0-0.02-5.75-2.96-7.95
	c-2.93-2.2-7.75-2.23-10.15-1.2s-5.75,3.55-6.38,9.81c-0.64,6.26,2.99,10.4,8.19,11.2c7.43,1.15,10.64-2.98,10.86-3.72
	C158.87,92.45,158.37,92.3,158.37,92.3z M146.45,80.14c0.72-2.5,2.58-3.85,3.72-3.9c1.14-0.05,2.09,1.33,2.49,2.61
	c0.4,1.28,0.16,4.99,0.16,4.99h-6.68C146.14,83.83,145.74,82.64,146.45,80.14z"/>
<path d="M175.72,81.7v-5.46c0,0-1.78-1.29-5.43-1.3c-3.73-0.01-5.95,0.59-8.39,3.41s-0.63,6.9,1.2,8.19
	c1.44,1.01,5.96,2.49,7.09,3.75c1.25,1.39,0.91,3.88-1.63,4.53c-2.54,0.65-4.21-1.16-5.25-2.23c-1.04-1.08-1.68-3.42-1.68-3.42
	h-0.74v6.64c0,0,1.49,1.17,5.98,1.3c4.48,0.13,8.15-1.37,9.39-3.67s0.86-5.43-0.65-7.38c-1.52-1.95-7.36-2.98-8.49-5.1
	c-0.95-1.77,0.63-4.15,1.87-4.35c1.51-0.23,2.75,0.03,4.01,1.74c1.64,2.22,1.74,3.36,1.74,3.36L175.72,81.7z"/>
</svg>
