<?xml version="1.0" encoding="utf-8"?>
<!-- Generator: Adobe Illustrator 24.2.0, SVG Export Plug-In . SVG Version: 6.00 Build 0)  -->
<svg version="1.1" id="图层_1" xmlns="http://www.w3.org/2000/svg" xmlns:xlink="http://www.w3.org/1999/xlink" x="0px" y="0px"
	 viewBox="0 0 218.48 153.78" style="enable-background:new 0 0 218.48 153.78;" xml:space="preserve">
<style type="text/css">
	.st0{fill:#C2321F;}
	.st1{fill:#767777;}
</style>
<g>
	<g>
		<path class="st0" d="M108.51,41.68C93.5,49.02,78.59,56.31,63.57,63.65c7.35,15.04,14.64,29.95,21.97,44.93
			c15.03-7.35,29.97-14.65,44.92-21.96l-14.58-29.86C113.43,51.75,110.98,46.73,108.51,41.68z M117.87,72.88
			c-1,3.04-3.07,5.09-6.14,6.11c-2.44,0.81-4.94,0.71-7.42,0.66c-0.25-0.81-0.3-3.91-0.09-5.21c0.24-0.03,0.51-0.09,0.78-0.1
			c0.73-0.03,1.47,0,2.2-0.06c2.86-0.22,4.57-1.79,4.89-4.65c0.11-0.95,0.04-1.97-0.19-2.89c-0.51-2.06-2.02-3.15-4.04-3.44
			c-1.4-0.2-2.84-0.16-4.37-0.23c-0.03,0.51-0.07,0.87-0.07,1.24c-0.01,2.69-0.02,5.38,0.01,8.06c0.01,0.7-0.16,1.27-0.6,1.82
			c-1.26,1.59-2.49,3.19-3.69,4.82c-0.35,0.47-0.72,0.67-1.31,0.67c-7.57-0.02-15.15-0.01-22.72-0.01c-0.2,0-0.41-0.03-0.8-0.06
			c0.23-0.4,0.4-0.72,0.59-1.01c3.2-4.79,6.4-9.58,9.59-14.36c0.21-0.31,0.4-0.62,0.69-1.09c-3.59-0.07-6.99,0.02-10.51-0.06
			c0.16-0.33,0.22-0.53,0.33-0.69c0.88-1.34,1.79-2.67,2.66-4.01c0.25-0.39,0.54-0.58,1.02-0.58c5.31,0.01,10.61,0.01,15.92,0.01
			c0.13,0,0.26,0.04,0.58,0.1c-1.13,1.89-2.27,3.66-3.38,5.45c-1.1,1.78-2.22,3.55-3.33,5.33c-1.12,1.8-2.24,3.6-3.37,5.42
			c0.82,0.24,10.3,0.32,12.11,0.1c0-5.45,0-10.84,0-16.28c0.33-0.05,0.57-0.12,0.8-0.12c3.49,0.01,6.98-0.03,10.47,0.09
			c1.27,0.04,2.57,0.33,3.78,0.74c2.75,0.92,4.59,2.85,5.54,5.59C118.77,67.1,118.81,70.01,117.87,72.88z"/>
	</g>
</g>
<path class="st1" d="M154.95,72.84c-1.66,0-3.23,0-4.79,0c-1.57,0-3.13,0-4.68,0c-0.25,1.64,0.63,3.23,1.98,3.71
	c1.51,0.54,2.45,0.01,3.58-2.05c1.21,0.22,2.43,0.44,3.74,0.68c-0.76,2.36-2.19,3.92-4.58,4.48c-1.24,0.29-2.5,0.27-3.74-0.01
	c-2.17-0.5-3.67-1.83-4.45-3.9c-1.02-2.72-1-5.49,0.04-8.19c1.02-2.66,3.49-4.25,6.2-4.15c2.99,0.1,5.17,1.71,6.13,4.53
	C154.89,69.48,155.09,71.06,154.95,72.84z M151.03,70.24c0.01-2.27-1.14-3.59-2.89-3.58c-1.38,0.01-2.94,1.5-2.64,3.58
	C147.32,70.24,149.15,70.24,151.03,70.24z"/>
<path class="st1" d="M164.87,76.12c-0.35,0.08-0.55,0.12-0.75,0.17c-1.37,0.35-1.8,0.06-1.82-1.37c-0.04-2.34-0.03-4.67-0.04-7.01
	c0-0.2,0.04-0.4,0.07-0.73c0.85,0,1.67,0,2.48,0c0-1.17,0-2.19,0-3.33c-0.85,0-1.64,0-2.57,0c0-1.85,0-3.6,0-5.54
	c-0.98,0.61-1.82,1.15-2.65,1.64l-1.25,0.77v1.34c0.01,0.57,0,1.15,0,1.73c-0.66,0.04-1.18,0.07-1.73,0.11c0,1.11,0,2.17,0,3.24
	c0.59,0.04,1.11,0.07,1.68,0.1c0.02,0.39,0.04,0.73,0.05,1.07c0.01,2.48,0,4.95,0.03,7.43c0.01,0.55,0.1,1.11,0.19,1.66
	c0.23,1.33,1.09,2.06,2.35,2.36c1.44,0.34,2.83,0.13,4.31-0.49C165.1,78.24,164.99,77.2,164.87,76.12z"/>
<path class="st1" d="M134.33,57.85c0,1.68,0,3.21,0,4.75c0,1.54,0.01,3.07,0,4.61c-0.01,1.51,0.04,3.02-0.12,4.53
	c-0.28-0.28-0.46-0.56-0.63-0.85c-2.29-3.99-4.58-7.99-6.87-11.98c-0.14-0.24-0.26-0.5-0.43-0.72c-0.12-0.15-0.31-0.34-0.47-0.35
	c-1.21-0.03-2.42-0.02-3.75-0.02c0,3.23,0,6.36,0,9.48v1.65c-0.07,0.01-0.13,0.03-0.2,0.04l0.2,0.41v10.11h3.84l0.01-2.23
	l0.08-11.33c0.3,0.19,0.46,0.41,0.59,0.64c1.57,2.72,3.14,5.44,4.71,8.15c0.8,1.39,1.59,2.79,2.41,4.16
	c0.14,0.24,0.42,0.55,0.65,0.56c1.24,0.06,2.49,0.03,3.78,0.03c0-7.27,0-14.41,0-21.67C136.86,57.8,135.63,57.77,134.33,57.85z
	 M125.9,65.92c0-0.01,0-0.02,0-0.03c0.01,0.01,0.02,0.01,0.03,0.02L125.9,65.92z"/>
</svg>
