<?xml version="1.0" encoding="utf-8"?>
<!-- Generator: Adobe Illustrator 24.2.0, SVG Export Plug-In . SVG Version: 6.00 Build 0)  -->
<svg version="1.1" id="图层_1" xmlns="http://www.w3.org/2000/svg" xmlns:xlink="http://www.w3.org/1999/xlink" x="0px" y="0px"
	 viewBox="0 0 218.48 153.78" style="enable-background:new 0 0 218.48 153.78;" xml:space="preserve">
<style type="text/css">
	.st0{fill:#2C6888;}
	.st1{fill:#040000;}
	.st2{fill:#B93E78;}
</style>
<path class="st0" d="M41.54,73.33V69.7c0-0.02-0.02-0.04-0.04-0.04h-3.63c-0.02,0-0.04-0.02-0.04-0.04v-6.12
	c0-0.02-0.02-0.04-0.04-0.04h-5.83c-0.02,0-0.04,0.02-0.04,0.04v6.12c0,0.02-0.02,0.04-0.04,0.04h-3.5c-0.02,0-0.04,0.02-0.04,0.04
	v3.63c0,0.02,0.02,0.04,0.04,0.04h3.5c0.02,0,0.04,0.02,0.04,0.04v11.11c0,0-0.15,4.47,3.29,4.47h6.3c0.02,0,0.04-0.02,0.04-0.04
	c0,0,0.02-4.46,0-4.47l-2.08-0.05c-0.85-0.02-1.61-0.59-1.61-1.55c0,0-0.03-9.47-0.03-9.47c0-0.02,0.02-0.04,0.04-0.04h3.63
	C41.52,73.38,41.54,73.36,41.54,73.33z"/>
<path class="st0" d="M56.23,82.75c0,0-0.68,2.35-4.14,2.24c-3.85-0.13-4.2-2.48-4.24-4.24h13.91v-2.01c0-2.36-0.58-4.7-1.86-6.68
	c-1.13-1.76-2.89-3.08-5.43-3.5c-3.24-0.54-9.96-0.16-12.21,5.56S41.66,86.78,47.49,89c7.12,2.71,11.48-0.55,13.3-2.9
	c0.83-1.07,1.14-3.34,1.14-3.34H56.23z M48.16,75.28c0.55-1.15,2.26-2.37,4.82-1.91c3.13,0.57,2.79,4.5,2.79,4.5h-7.91
	C47.85,77.88,47.72,76.19,48.16,75.28z"/>
<path class="st0" d="M77,81.64c-0.66,2-2.13,3.4-3.84,3.4c-2.33,0-4.21-2.57-4.21-5.75s1.89-5.75,4.21-5.75
	c1.75,0,3.25,1.45,3.88,3.53h6.05c-0.99-4.78-5.17-8.38-10.19-8.38c-5.75,0-10.41,4.72-10.41,10.55s4.66,10.55,10.41,10.55
	c4.93,0,9.05-3.48,10.13-8.15H77z"/>
<path class="st0" d="M94.71,68.69c-2.8,0.82-4.5,2.64-5.23,3.61v-8.84H83.7v25.53h5.77V78.24c0.68-1.5,2.13-4.02,4.23-4.06
	c2.98-0.05,3.11,3.6,3.11,3.6v11.2h6.02c0,0,0-11.69,0-15.51C102.83,69.66,97.78,67.8,94.71,68.69z"/>
<path class="st1" d="M113.67,69.33c-1.42,0.26-2.56,1.55-3.27,2.63v-2.84h-6.74v19.86h6.74V78.17c0.32-0.72,0.85-1.69,1.7-2.48
	c1.16-1.08,5.41-0.78,5.41-0.78v-5.79C117.5,69.12,115.69,68.97,113.67,69.33z"/>
<path class="st1" d="M188.39,69.37c-1.42,0.26-2.56,1.55-3.27,2.63v-2.84h-6.74v19.86h6.74V78.21c0.32-0.72,0.85-1.69,1.7-2.48
	c1.16-1.08,5.41-0.78,5.41-0.78v-5.79C192.23,69.16,190.41,69.01,188.39,69.37z"/>
<path class="st1" d="M136.04,86.22c0.02-1.25-0.07-7.26-0.07-9.57c0-2.3,0.2-4.54-2.01-6.35c-2.14-1.76-8.4-2.4-12.32-0.67
	s-3.88,5.71-3.88,5.71h5.84c0,0-0.13-2.7,3.42-2.79c0.02,0,0.04,0,0.06,0c1.63-0.02,2.87,1.45,2.79,3.08
	c-0.03,0.56-0.15,1.06-0.47,1.2c-0.47,0.2-3.65,0.37-5.33,0.55s-4.74,0.49-6.39,3.02s-1.21,5.4,0.46,7.61
	c1.66,2.22,5.71,2.17,7.63,1.88c1.66-0.25,4.88-2.73,4.88-2.73v0.08v1.73h6.44v-0.42C137.08,88.54,136.01,88.62,136.04,86.22z
	 M128.92,85.15c-0.83,0.54-1.4,0.8-2.45,0.86c-1.87,0.1-2.76-0.55-2.9-1.81c-0.22-1.85,0.75-2.9,3.1-3.23
	c2.05-0.28,3.62-0.78,3.98-0.9v1.59c0,0.78-0.16,1.57-0.55,2.24C129.82,84.37,129.44,84.81,128.92,85.15z"/>
<path class="st1" d="M176.76,86.19c0.02-1.25-0.07-7.26-0.07-9.57c0-2.3,0.2-4.54-2.01-6.35c-2.14-1.76-8.4-2.4-12.32-0.67
	s-3.88,5.71-3.88,5.71h5.84c0,0-0.13-2.7,3.42-2.79c0.02,0,0.04,0,0.06,0c1.63-0.02,2.87,1.45,2.79,3.08
	c-0.03,0.56-0.15,1.06-0.47,1.2c-0.47,0.2-3.65,0.37-5.33,0.55s-4.74,0.49-6.39,3.02s-1.21,5.4,0.46,7.61
	c1.66,2.22,5.71,2.17,7.63,1.88c1.66-0.25,4.88-2.73,4.88-2.73v0.08v1.73h6.44v-0.42C177.8,88.52,176.72,88.6,176.76,86.19z
	 M169.63,85.13c-0.83,0.54-1.4,0.8-2.45,0.86c-1.87,0.1-2.76-0.55-2.9-1.81c-0.22-1.85,0.75-2.9,3.1-3.23
	c2.05-0.28,3.62-0.78,3.98-0.9v1.59c0,0.78-0.16,1.57-0.55,2.24C170.53,84.35,170.15,84.78,169.63,85.13z"/>
<path class="st1" d="M150.66,63.45v7.94c-1.48-1.62-3.43-2.61-5.56-2.61c-4.66,0-8.43,4.69-8.43,10.47s3.77,10.47,8.43,10.47
	c2.13,0,4.08-0.99,5.56-2.61v1.83h6.65V63.45H150.66z M147.14,85.12c-2.29,0-4.14-2.56-4.14-5.72s1.85-5.72,4.14-5.72
	c1.49,0,2.79,1.09,3.52,2.72v6C149.94,84.03,148.63,85.12,147.14,85.12z"/>
<rect x="186.11" y="83.02" class="st2" width="6.36" height="6"/>
</svg>
